<?xml version="1.0" encoding="UTF-8"?>
<svg width="24px" height="24px" viewBox="0 0 24 24" version="1.1" xmlns="http://www.w3.org/2000/svg">
    <title>Default Broker Icon</title>
    <g stroke="none" stroke-width="1" fill="none" fill-rule="evenodd">
        <circle fill="#F3F4F6" cx="12" cy="12" r="12"></circle>
        <g transform="translate(5, 5)" fill="#9CA3AF">
            <path d="M12,2 L12,10 C12,11.1 11.1,12 10,12 L2,12 C0.9,12 0,11.1 0,10 L0,2 C0,0.9 0.9,0 2,0 L10,0 C11.1,0 12,0.9 12,2 Z M10,2 L2,2 L2,10 L10,10 L10,2 Z M8,4 L4,4 L4,8 L8,8 L8,4 Z" fill-rule="nonzero"></path>
            <path d="M5,6 L7,6 L7,6 C7.55228475,6 8,6.44771525 8,7 L8,9 L5,9 C4.44771525,9 4,8.55228475 4,8 L4,7 C4,6.44771525 4.44771525,6 5,6 Z"></path>
        </g>
    </g>
</svg>